<svg width="24" height="24" viewBox="0 0 24 24" fill="none" xmlns="http://www.w3.org/2000/svg">
<g clip-path="url(#clip0_502_5)">
<path d="M11.4525 14.0188C7.19075 14.404 3.94391 18.0051 4.00048 22.2838V22.5008C4.00048 23.3292 4.67206 24.0008 5.50048 24.0008C6.32891 24.0008 7.00048 23.3292 7.00048 22.5008V22.2238C6.95539 19.5967 8.89414 17.3564 11.5005 17.0238C14.2517 16.751 16.7032 18.7602 16.976 21.5114C16.9922 21.6741 17.0003 21.8374 17.0005 22.0008V22.5008C17.0005 23.3292 17.672 24.0008 18.5005 24.0008C19.3289 24.0008 20.0005 23.3292 20.0005 22.5008V22.0008C19.9956 17.5775 16.4059 13.9957 11.9826 14.0006C11.8058 14.0008 11.629 14.0069 11.4525 14.0188Z" fill="white"/>
<path d="M12.0005 12C15.3142 12 18.0005 9.31369 18.0005 6C18.0005 2.68631 15.3142 0 12.0005 0C8.6868 0 6.00049 2.68631 6.00049 6C6.00377 9.31233 8.68816 11.9967 12.0005 12ZM12.0005 3C13.6573 3 15.0005 4.34316 15.0005 6C15.0005 7.65684 13.6573 9 12.0005 9C10.3436 9 9.00049 7.65684 9.00049 6C9.00049 4.34316 10.3436 3 12.0005 3Z" fill="white"/>
</g>
<defs>
<clipPath id="clip0_502_5">
<rect width="24" height="24" fill="white"/>
</clipPath>
</defs>
</svg>
