<svg width="24" height="24" viewBox="0 0 24 24" fill="none" xmlns="http://www.w3.org/2000/svg">
<g clip-path="url(#clip0_502_2)">
<path d="M21.9998 -0.000232061H19.8278C19.4337 -0.00135454 19.0433 0.0757631 18.6792 0.22665C18.3151 0.377538 17.9846 0.599193 17.7068 0.878768L9.34579 9.23877C7.74505 8.82575 6.05293 8.95049 4.53005 9.59375C3.00718 10.237 1.73804 11.3631 0.918122 12.7986C0.0982028 14.2341 -0.22701 15.8994 -0.00742289 17.5379C0.212164 19.1764 0.964369 20.6973 2.13333 21.8662C3.30229 23.0352 4.82315 23.7874 6.46166 24.007C8.10017 24.2266 9.76543 23.9013 11.2009 23.0814C12.6364 22.2615 13.7625 20.9924 14.4058 19.4695C15.0491 17.9466 15.1738 16.2545 14.7608 14.6538L15.9998 13.4148V10.9998H18.9998V7.99977H21.4138L23.1208 6.29277C23.4003 6.0147 23.6218 5.68399 23.7727 5.31976C23.9236 4.95553 24.0008 4.56501 23.9998 4.17077V1.99977C23.9998 1.46934 23.7891 0.960627 23.414 0.585554C23.0389 0.210482 22.5302 -0.000232061 21.9998 -0.000232061V-0.000232061ZM21.9998 4.17077C21.9999 4.30225 21.9741 4.43246 21.9238 4.55394C21.8735 4.67543 21.7998 4.78581 21.7068 4.87877L20.5858 5.99977H16.9998V8.99977H13.9998V12.5848L12.4548 14.1298C12.8066 14.8707 12.9926 15.6795 12.9998 16.4998C12.9998 17.5876 12.6772 18.6509 12.0729 19.5554C11.4685 20.4599 10.6095 21.1648 9.60455 21.5811C8.59955 21.9974 7.49368 22.1063 6.42679 21.8941C5.35989 21.6819 4.37989 21.158 3.6107 20.3889C2.84151 19.6197 2.31768 18.6397 2.10547 17.5728C1.89325 16.5059 2.00217 15.4 2.41845 14.395C2.83473 13.39 3.53968 12.531 4.44415 11.9267C5.34862 11.3223 6.41199 10.9998 7.49979 10.9998C8.32564 10.9458 9.14922 11.1349 9.86879 11.5438L19.1208 2.29277C19.3088 2.10605 19.5628 2.0008 19.8278 1.99977H21.9998V4.17077ZM4.99979 17.9998C4.99979 18.1975 5.05843 18.3909 5.16832 18.5553C5.2782 18.7198 5.43438 18.848 5.6171 18.9236C5.79983 18.9993 6.00089 19.0191 6.19488 18.9806C6.38886 18.942 6.56704 18.8467 6.70689 18.7069C6.84674 18.567 6.94199 18.3888 6.98057 18.1949C7.01916 18.0009 6.99935 17.7998 6.92367 17.6171C6.84798 17.4344 6.71981 17.2782 6.55536 17.1683C6.39091 17.0584 6.19757 16.9998 5.99979 16.9998C5.73457 16.9998 5.48022 17.1051 5.29268 17.2927C5.10514 17.4802 4.99979 17.7346 4.99979 17.9998Z" fill="white"/>
</g>
<defs>
<clipPath id="clip0_502_2">
<rect width="24" height="24" fill="white"/>
</clipPath>
</defs>
</svg>
